<svg width="14" height="16" viewBox="0 0 14 16" fill="none" xmlns="http://www.w3.org/2000/svg">
<path d="M11.25 2.32031C10.4688 1.57031 9.25 1.57031 8.46875 2.32031L2.71875 8.07031C1.40625 9.38281 1.40625 11.5391 2.71875 12.8516C4.03125 14.1641 6.1875 14.1641 7.5 12.8516L12.25 8.10156C12.5938 7.75781 13.125 7.75781 13.4688 8.10156C13.8125 8.44531 13.8125 8.97656 13.4688 9.32031L8.71875 14.0703C6.71875 16.0703 3.5 16.0703 1.5 14.0703C-0.5 12.0703 -0.5 8.85156 1.5 6.85156L7.25 1.10156C8.6875 -0.367188 11.0312 -0.367188 12.4688 1.10156C13.9375 2.53906 13.9375 4.88281 12.4688 6.32031L6.96875 11.8203C6.09375 12.7266 4.625 12.7266 3.75 11.8203C2.84375 10.9453 2.84375 9.47656 3.75 8.60156L8.25 4.10156C8.59375 3.75781 9.125 3.75781 9.46875 4.10156C9.8125 4.44531 9.8125 4.97656 9.46875 5.32031L4.96875 9.82031C4.78125 10.0391 4.78125 10.3828 4.96875 10.6016C5.1875 10.7891 5.53125 10.7891 5.75 10.6016L11.25 5.10156C12 4.32031 12 3.10156 11.25 2.32031Z" fill="#192040"/>
</svg>
