<svg width="18" height="15" viewBox="0 0 18 15" fill="none" xmlns="http://www.w3.org/2000/svg">
<path fill-rule="evenodd" clip-rule="evenodd" d="M13.788 14.834C14.0295 15.005 14.3407 15.0478 14.6182 14.9428C14.8957 14.837 15.0997 14.6 15.1612 14.3128C15.8129 11.2499 17.3939 3.49728 17.9871 0.711095C18.0321 0.5011 17.9571 0.282855 17.7921 0.142608C17.6271 0.00236116 17.3984 -0.038138 17.1944 0.0376103C14.0497 1.20158 4.3652 4.83525 0.406789 6.29997C0.155545 6.39297 -0.00795143 6.63446 0.000298384 6.8992C0.00929818 7.1647 0.187794 7.39494 0.445038 7.47219C2.22025 8.00318 4.55044 8.74191 4.55044 8.74191C4.55044 8.74191 5.63942 12.0306 6.20716 13.703C6.27841 13.913 6.44265 14.078 6.6594 14.135C6.87539 14.1913 7.10639 14.132 7.26763 13.9798C8.17961 13.1188 9.58958 11.7876 9.58958 11.7876C9.58958 11.7876 12.2685 13.7518 13.788 14.834ZM5.53067 8.32642L6.78989 12.4798L7.06964 9.84964C7.06964 9.84964 11.9348 5.46149 14.7082 2.96029C14.7892 2.8868 14.8005 2.7638 14.733 2.67755C14.6662 2.5913 14.5432 2.57105 14.451 2.62955C11.2365 4.68225 5.53067 8.32642 5.53067 8.32642Z" fill="#192040"/>
</svg>
