<svg width="18" height="18" viewBox="0 0 18 18" fill="none" xmlns="http://www.w3.org/2000/svg">
<path d="M0 18L1.26525 13.3778C0.4845 12.0247 0.07425 10.491 0.075 8.91825C0.07725 4.00125 4.0785 0 8.99475 0C11.3805 0.00075 13.62 0.93 15.3045 2.616C16.9883 4.302 17.9153 6.543 17.9145 8.9265C17.9123 13.8443 13.911 17.8455 8.99475 17.8455C7.50225 17.8448 6.0315 17.4705 4.72875 16.7595L0 18ZM4.94775 15.1448C6.20475 15.891 7.40475 16.338 8.99175 16.3387C13.0777 16.3387 16.4062 13.0133 16.4085 8.925C16.41 4.8285 13.0972 1.5075 8.99775 1.506C4.90875 1.506 1.5825 4.8315 1.581 8.919C1.58025 10.5878 2.06925 11.8372 2.8905 13.1445L2.14125 15.8805L4.94775 15.1448ZM13.488 11.0468C13.4325 10.9537 13.284 10.8982 13.0605 10.7865C12.8378 10.6748 11.742 10.1355 11.5372 10.0612C11.3332 9.987 11.1847 9.9495 11.0355 10.173C10.887 10.3958 10.4595 10.8982 10.3298 11.0468C10.2 11.1953 10.0695 11.214 9.84675 11.1023C9.624 10.9905 8.9055 10.7557 8.05425 9.996C7.392 9.405 6.94425 8.67525 6.8145 8.45175C6.68475 8.229 6.801 8.10825 6.912 7.99725C7.0125 7.8975 7.13475 7.737 7.2465 7.6065C7.35975 7.4775 7.3965 7.3845 7.4715 7.23525C7.54575 7.08675 7.509 6.95625 7.45275 6.8445C7.3965 6.7335 6.951 5.63625 6.76575 5.19C6.58425 4.75575 6.4005 4.81425 6.264 4.8075L5.8365 4.8C5.688 4.8 5.4465 4.8555 5.2425 5.079C5.0385 5.3025 4.4625 5.841 4.4625 6.93825C4.4625 8.0355 5.26125 9.09525 5.37225 9.24375C5.484 9.39225 6.9435 11.6438 9.17925 12.609C9.711 12.8385 10.1265 12.9757 10.4497 13.0785C10.9837 13.248 11.4698 13.224 11.8538 13.167C12.282 13.1032 13.1723 12.6277 13.3583 12.1073C13.5443 11.586 13.5443 11.1398 13.488 11.0468Z" fill="#192040"/>
</svg>
