<svg width="16" height="16" viewBox="0 0 16 16" fill="none" xmlns="http://www.w3.org/2000/svg">
<path d="M15.646 13.8658L11.896 10.1158C12.7398 8.86576 13.1773 7.30326 12.9585 5.61576C12.5523 2.74076 10.2085 0.428256 7.36478 0.0532565C3.11478 -0.477994 -0.47897 3.11576 0.0522799 7.36576C0.42728 10.2095 2.73978 12.5533 5.61478 12.9595C7.30228 13.1783 8.86478 12.7408 10.146 11.897L13.8648 15.647C14.3648 16.1158 15.146 16.1158 15.646 15.647C16.1148 15.147 16.1148 14.3658 15.646 13.8658ZM2.48978 6.49076C2.48978 4.30326 4.27103 2.49076 6.48978 2.49076C8.67728 2.49076 10.4898 4.30326 10.4898 6.49076C10.4898 8.70951 8.67728 10.4908 6.48978 10.4908C4.27103 10.4908 2.48978 8.70951 2.48978 6.49076Z" fill="#192040"/>
</svg>
