<svg width="14" height="12" viewBox="0 0 14 12" fill="none" xmlns="http://www.w3.org/2000/svg">
<path d="M11.9766 6.75L12 10.5C12 11.3438 11.3203 12 10.5 12H3C2.15625 12 1.5 11.3438 1.5 10.5V6.75H0.75C0.328125 6.75 0 6.42188 0 6C0 5.78906 0.0703125 5.60156 0.234375 5.4375L6.23437 0.210938C6.39844 0.046875 6.58594 0 6.75 0C6.91406 0 7.10156 0.0703125 7.24219 0.1875L13.2187 5.4375C13.4062 5.60156 13.5 5.78906 13.4766 6C13.4766 6.42188 13.125 6.75 12.7266 6.75H11.9766ZM5.8125 4.5C5.48437 4.5 5.25 4.75781 5.25 5.0625V6.9375C5.25 7.26562 5.48437 7.5 5.8125 7.5H7.6875C7.99219 7.5 8.25 7.26562 8.25 6.9375V5.0625C8.25 4.75781 7.99219 4.5 7.6875 4.5H5.8125Z" fill="#828299"/>
</svg>
