<svg width="24" height="24" viewBox="0 0 24 24" fill="none" xmlns="http://www.w3.org/2000/svg">
<path d="M12.8711 17.2451C13.3278 17.2451 13.5146 16.9406 13.5093 16.5588C13.4861 15.1212 14.0448 14.3472 15.0535 15.3559C16.1695 16.4718 16.4004 17.2451 17.7556 17.2451H20.1555C20.7615 17.2451 21 17.0501 21 16.7441C21 16.0969 19.9343 14.9547 19.0313 14.1162C17.7669 12.9425 17.7076 12.9147 18.7966 11.5018C20.1473 9.74763 21.9142 7.49997 20.3513 7.49997H17.3657C16.7867 7.49997 16.7447 7.82621 16.5384 8.31218C15.7922 10.0724 14.374 12.3523 13.8355 12.0035C13.2723 11.6398 13.5303 10.1991 13.5731 8.05795C13.5843 7.49247 13.5813 7.10474 12.7173 6.90374C12.2456 6.795 11.7866 6.75 11.3607 6.75C9.65597 6.75 8.48002 7.46472 9.14824 7.58921C10.3264 7.80896 10.2132 10.3581 9.93871 11.4591C9.46023 13.376 7.66181 9.94112 6.91259 8.23044C6.73184 7.81946 6.67635 7.49997 6.03137 7.49997H3.59023C3.22124 7.49997 3 7.61996 3 7.88695C3 8.33843 5.21991 12.9267 7.33932 15.2141C9.40623 17.4453 11.4491 17.2451 12.8711 17.2451Z" fill="#192040"/>
</svg>
